<svg id="Layer_1" data-name="Layer 1" xmlns="http://www.w3.org/2000/svg" viewBox="0 0 1284.02 702.73"><defs><style>.cls-1{fill:#e9ecef;}.cls-2{fill:#fff;}</style></defs><title>backround</title><path class="cls-1" d="M471.43,566.51c-50.48-41.4-55.27-125.68-36.1-182,22.49-66.14,78.12-94.32,184.78-148.37,109.74-55.61,164.61-83.41,219.66-58.22,61.66,28.21,97.8,109.52,91.58,175.32-10.89,115.12-150,167.43-232.22,198.36C622.51,580.37,530.51,615,471.43,566.51Z" transform="translate(-63 -20)"/><path class="cls-2" d="M480.2,560.18c-47-38.5-50.27-118.32-31.34-172,22.21-63,75.12-90.59,176.56-143.42C729.8,190.35,782,163.17,833.56,186.23c57.76,25.82,90.64,102.36,83.79,164.84-12,109.3-144,161-222.08,191.53C622.55,571.06,535.22,605.24,480.2,560.18Z" transform="translate(-63 -20)"/><circle class="cls-1" cx="579.17" cy="470.08" r="83" transform="translate(-202.12 248.91) rotate(-23.42)"/><path class="cls-1" d="M607,372.29a5.16,5.16,0,0,0-4.22-5.42l-23.7-4.76a3.67,3.67,0,0,1-2.88-4.32h0a3.67,3.67,0,0,1,4.32-2.88l.82.17a5.16,5.16,0,0,0,6-3.37,5,5,0,0,0-3.79-6.38l-28.77-5.78a5.16,5.16,0,0,0-6,3.37,5,5,0,0,0,3.79,6.38l13,2.62a3.67,3.67,0,0,1,2.88,4.32h0a3.67,3.67,0,0,1-4.32,2.88l-4.06-.81a5.16,5.16,0,0,0-6,3.37,5,5,0,0,0,3.79,6.38l43.14,8.66A5,5,0,0,0,607,372.29Z" transform="translate(-63 -20)"/><path class="cls-1" d="M671.64,390.5a5,5,0,0,0,7.6-1.73,5.14,5.14,0,0,0-1.56-6.25l-37.81-29.85a3.13,3.13,0,0,1-.52-4.4h0a3.13,3.13,0,0,1,4.4-.52l22.35,17.64a5.14,5.14,0,0,0,6.44.07,5,5,0,0,0-.08-7.79l-34.34-27.11a6.4,6.4,0,0,0-7.84.18h0a4.07,4.07,0,0,0,.15,6.49l4.06,3.21a3.13,3.13,0,0,1,.52,4.4h0a3.13,3.13,0,0,1-4.4.52L593.45,316A5.14,5.14,0,0,0,587,316a5,5,0,0,0,.08,7.79l56.33,44.47a3.13,3.13,0,0,1,.52,4.4l-.29.37a3.13,3.13,0,0,1-4.4.52l-36.45-28.78a5.14,5.14,0,0,0-6.44-.07,5,5,0,0,0,.08,7.79l59.49,47a5.14,5.14,0,0,0,6.44.07,5,5,0,0,0-.08-7.79l-12.94-10.22a3.13,3.13,0,0,1-.52-4.4l.29-.37a3.13,3.13,0,0,1,4.4-.52Z" transform="translate(-63 -20)"/><path class="cls-1" d="M720.73,472.11l-28.1-56.4a3.35,3.35,0,0,1,1.51-4.5l1.17-.58a3.35,3.35,0,0,1,4.35,1.24l3,4.82a5.19,5.19,0,0,0,6.61,2.08,5,5,0,0,0,2-7.12L689.83,377a5.19,5.19,0,0,0-6.61-2.08,5,5,0,0,0-2,7.12l11,17.8a3.35,3.35,0,0,1-1.36,4.77h0a3.35,3.35,0,0,1-4.5-1.51l-.23-.46a5.19,5.19,0,0,0-6.39-2.68,5,5,0,0,0-2.68,6.9l15.17,30.44a3.35,3.35,0,0,1-1.51,4.5L688.29,443a3.35,3.35,0,0,1-4.5-1.51l-15.1-30.29a5.19,5.19,0,0,0-6.39-2.68,5,5,0,0,0-2.68,6.9l24.86,49.88a5.19,5.19,0,0,0,6.39,2.68,5,5,0,0,0,2.68-6.9l-3.49-7a3.35,3.35,0,0,1,1.51-4.5l2.43-1.21a3.35,3.35,0,0,1,4.5,1.51l13.4,26.9a5,5,0,0,0,7.12,2A5.19,5.19,0,0,0,720.73,472.11Z" transform="translate(-63 -20)"/><path class="cls-1" d="M741.94,317.91c-16.1-16.21-39.22-29-67.18-33.81-3.76-.64-5.86-3.59-4.37-6.75h0c1.48-3.16,6.16-5.22,10.1-4.39,29.11,6,53.14,19.94,69.94,37.43a5.32,5.32,0,0,1-.43,7.9h0A6,6,0,0,1,741.94,317.91Z" transform="translate(-63 -20)"/><path class="cls-1" d="M771.46,313.66c-14.38-6-31-17.47-49.39-29-18.37-11-38.49-22.1-59.86-14.86-3.67,1.28-6.31.23-5.75-3.24h0c.56-3.46,4.26-7.91,8.09-9,22.21-6.1,43.14,6.57,62.28,18,19.14,12,36.5,22.71,51.56,26.61,2.62.67,3,4,1,7.38h0C777.45,312.9,773.94,314.76,771.46,313.66Z" transform="translate(-63 -20)"/><path class="cls-1" d="M770.45,291.18c-26.11-11-56.31-23.94-82.28-44.22-3.65-2.82-3.24-6.41.73-7.94h0a15.42,15.42,0,0,1,13.19,1.64c24.4,18.18,54.86,29.84,81.75,39.25,3.69,1.32,3.48,5.2-.28,8.41h0C779.82,291.54,774,292.74,770.45,291.18Z" transform="translate(-63 -20)"/><path class="cls-1" d="M790,274.13c-24.52-6.32-49.91-15-74-29.2-3.9-2.29-4.75-6.05-1.9-8.18h0c2.86-2.13,8.09-2.11,11.7-.09,22.53,12.83,47.75,21,73.23,25.89,4.05.77,5.24,4.14,2.66,7.47h0C799.09,273.34,793.86,275.16,790,274.13Z" transform="translate(-63 -20)"/><path class="cls-1" d="M766.84,251.24c-1.25-.52-2.52-1.07-3.81-1.68-4.6-2.18-6.14-6.4-2.87-8.31h0c3.31-1.91,8.65-2.13,12.9-.9q1.84.56,3.78,1c4.65.81,6.28,4,3.12,7.38h0A12.31,12.31,0,0,1,766.84,251.24Z" transform="translate(-63 -20)"/><path class="cls-1" d="M747.87,224.89c.29-.83.61-1.64,1-2.45,1.37-2.79,7-3.51,12.12-3.31h0c5.23.33,9.88,1.86,8.81,5.33q-.44,1.42-1,2.83c-1.36,3.4-6.91,6-12.17,5.24h0C751.33,231.85,746.89,227.86,747.87,224.89Z" transform="translate(-63 -20)"/><circle class="cls-1" cx="769.5" cy="323.5" r="4.5"/><circle class="cls-1" cx="815.5" cy="280.5" r="4.5"/><circle class="cls-1" cx="793.5" cy="407.5" r="9.5"/><circle class="cls-1" cx="706.5" cy="367.5" r="9.5"/><circle class="cls-1" cx="820.35" cy="327.86" r="7.65"/><circle class="cls-1" cx="760.65" cy="273.65" r="7.65"/><circle class="cls-1" cx="742.5" cy="378.5" r="4.5"/><circle class="cls-1" cx="747.5" cy="430.5" r="9.5"/><circle class="cls-1" cx="679.5" cy="422.5" r="9.5"/><circle class="cls-1" cx="641.35" cy="327.86" r="7.65"/><circle class="cls-1" cx="781.5" cy="238.5" r="4.5"/><circle class="cls-1" cx="747.5" cy="184.5" r="9.5"/><circle class="cls-1" cx="415.5" cy="392.5" r="9.5"/><circle class="cls-1" cx="466.17" cy="482.73" r="9.5" transform="translate(-228.53 236.25) rotate(-26.28)"/><circle class="cls-1" cx="460.1" cy="445.58" r="4.5" transform="translate(-212.71 229.72) rotate(-26.28)"/><circle class="cls-1" cx="537.5" cy="262.5" r="9.5"/><circle class="cls-1" cx="573.5" cy="273.5" r="4.5"/><circle class="cls-1" cx="241.5" cy="148.5" r="4.5"/><circle class="cls-1" cx="287.5" cy="105.5" r="4.5"/><circle class="cls-1" cx="265.5" cy="232.5" r="9.5"/><circle class="cls-1" cx="178.5" cy="192.5" r="9.5"/><circle class="cls-1" cx="292.35" cy="152.86" r="7.65"/><circle class="cls-1" cx="232.65" cy="98.65" r="7.65"/><circle class="cls-1" cx="214.5" cy="203.5" r="4.5"/><circle class="cls-1" cx="219.5" cy="255.5" r="9.5"/><circle class="cls-1" cx="151.5" cy="247.5" r="9.5"/><circle class="cls-1" cx="113.35" cy="152.86" r="7.65"/><circle class="cls-1" cx="253.5" cy="63.5" r="4.5"/><circle class="cls-1" cx="219.5" cy="9.5" r="9.5"/><circle class="cls-1" cx="457.93" cy="115.18" r="9.5" transform="matrix(0.84, -0.54, 0.54, 0.84, -52.17, 247.05)"/><circle class="cls-1" cx="392.26" cy="142.95" r="9.5" transform="translate(5.41 386.44) rotate(-59.16)"/><circle class="cls-1" cx="420.16" cy="117.68" r="4.5" transform="translate(40.71 398.08) rotate(-59.16)"/><circle class="cls-1" cx="9.5" cy="87.5" r="9.5"/><circle class="cls-1" cx="45.5" cy="98.5" r="4.5"/><circle class="cls-1" cx="173.7" cy="474.07" r="4.5" transform="translate(-349.11 245.54) rotate(-45.48)"/><circle class="cls-1" cx="110.76" cy="472.48" r="4.5" transform="translate(-366.79 200.18) rotate(-45.48)"/><circle class="cls-1" cx="215.49" cy="397.35" r="9.5" transform="translate(-281.92 252.4) rotate(-45.48)"/><circle class="cls-1" cx="249.48" cy="486.87" r="9.5" transform="translate(-335.59 303.39) rotate(-45.48)"/><circle class="cls-1" cx="140.5" cy="435.31" r="7.65" transform="translate(-331.4 210.28) rotate(-45.48)"/><circle class="cls-1" cx="145.06" cy="515.82" r="7.65" transform="translate(-387.44 237.59) rotate(-45.48)"/><circle class="cls-1" cx="231.52" cy="453.79" r="4.5" transform="translate(-317.37 280.7) rotate(-45.48)"/><circle class="cls-1" cx="264.41" cy="413.2" r="9.5" transform="translate(-278.6 292.02) rotate(-45.48)"/><circle class="cls-1" cx="307.29" cy="466.59" r="9.5" transform="translate(-303.85 338.55) rotate(-45.48)"/><circle class="cls-1" cx="268.13" cy="560.82" r="7.65" transform="translate(-382.74 338.79) rotate(-45.48)"/><circle class="cls-1" cx="105.55" cy="526.27" r="4.5" transform="translate(-406.69 212.54) rotate(-45.48)"/><circle class="cls-1" cx="91.93" cy="588.61" r="9.5" transform="translate(-455.22 221.46) rotate(-45.48)"/><circle class="cls-1" cx="474.49" cy="673.08" r="9.5" transform="translate(-401.11 519.48) rotate(-45.48)"/><circle class="cls-1" cx="532.52" cy="631.65" r="9.5" transform="matrix(0.31, -0.95, 0.95, 0.31, -297.08, 919.67)"/><circle class="cls-1" cx="510.81" cy="662.4" r="4.5" transform="translate(-341.2 920.17) rotate(-71.76)"/><circle class="cls-1" cx="296.36" cy="680.23" r="9.5" transform="translate(-459.45 394.6) rotate(-45.48)"/><circle class="cls-1" cx="278.4" cy="647.15" r="4.5" transform="translate(-441.23 371.91) rotate(-45.48)"/><circle class="cls-1" cx="907.12" cy="554.23" r="4.5"/><circle class="cls-1" cx="861.12" cy="597.23" r="4.5"/><circle class="cls-1" cx="883.12" cy="470.23" r="9.5"/><circle class="cls-1" cx="970.12" cy="510.23" r="9.5"/><circle class="cls-1" cx="856.27" cy="549.88" r="7.65"/><circle class="cls-1" cx="915.97" cy="604.08" r="7.65"/><circle class="cls-1" cx="934.12" cy="499.23" r="4.5"/><circle class="cls-1" cx="929.12" cy="447.23" r="9.5"/><circle class="cls-1" cx="997.12" cy="455.23" r="9.5"/><circle class="cls-1" cx="1035.27" cy="549.88" r="7.65"/><circle class="cls-1" cx="895.12" cy="639.23" r="4.5"/><circle class="cls-1" cx="929.12" cy="693.23" r="9.5"/><circle class="cls-1" cx="1261.12" cy="485.23" r="9.5"/><circle class="cls-1" cx="1336.45" cy="435.01" r="9.5" transform="translate(-117.48 616.59) rotate(-26.28)"/><circle class="cls-1" cx="1342.52" cy="472.16" r="4.5" transform="translate(-133.3 623.11) rotate(-26.28)"/><circle class="cls-1" cx="1139.12" cy="615.23" r="9.5"/><circle class="cls-1" cx="1103.12" cy="604.23" r="4.5"/><circle class="cls-1" cx="1100.92" cy="268.66" r="4.5" transform="translate(74.46 845.27) rotate(-45.48)"/><circle class="cls-1" cx="1163.87" cy="270.25" r="4.5" transform="translate(92.13 890.63) rotate(-45.48)"/><circle class="cls-1" cx="1059.13" cy="345.38" r="9.5" transform="translate(7.27 838.4) rotate(-45.48)"/><circle class="cls-1" cx="1025.15" cy="255.86" r="9.5" transform="translate(60.94 787.42) rotate(-45.48)"/><circle class="cls-1" cx="1134.12" cy="307.42" r="7.65" transform="translate(56.74 880.53) rotate(-45.48)"/><circle class="cls-1" cx="1129.56" cy="226.91" r="7.65" transform="translate(112.79 853.21) rotate(-45.48)"/><circle class="cls-1" cx="1043.1" cy="288.94" r="4.5" transform="translate(42.72 810.11) rotate(-45.48)"/><circle class="cls-1" cx="1010.21" cy="329.53" r="9.5" transform="translate(3.95 798.78) rotate(-45.48)"/><circle class="cls-1" cx="967.33" cy="276.15" r="9.5" transform="translate(29.2 752.26) rotate(-45.48)"/><circle class="cls-1" cx="1006.49" cy="181.92" r="7.65" transform="translate(108.09 752.01) rotate(-45.48)"/><circle class="cls-1" cx="1169.07" cy="216.47" r="4.5" transform="translate(132.04 878.26) rotate(-45.48)"/><circle class="cls-1" cx="1182.69" cy="154.12" r="9.5" transform="translate(180.56 869.34) rotate(-45.48)"/><circle class="cls-1" cx="800.13" cy="69.65" r="9.5" transform="translate(126.46 571.32) rotate(-45.48)"/><circle class="cls-1" cx="742.1" cy="111.08" r="9.5" transform="matrix(0.31, -0.95, 0.95, 0.31, 341.29, 761.11)"/><circle class="cls-1" cx="763.82" cy="80.34" r="4.5" transform="translate(385.41 760.61) rotate(-71.76)"/><circle class="cls-1" cx="978.27" cy="62.5" r="9.5" transform="translate(184.8 696.2) rotate(-45.48)"/><circle class="cls-1" cx="996.22" cy="95.58" r="4.5" transform="translate(166.57 718.89) rotate(-45.48)"/></svg>